<svg fill="none" height="308" viewBox="0 0 288 308" width="288" xmlns="http://www.w3.org/2000/svg"><rect fill="#182b49" height="308" rx="20" width="288"/><g fill="#c69214"><path d="m232.31 211.958 10.256-1.105v7.036l-3.99.437z"/><path d="m242.566 210.853 26.178 1.712v6.757l-26.178-1.433z"/><path d="m161.29 220.431 2.869-.364 6.682 6.314-2.724.34z"/><path d="m181.408 218.037 6.902-.819 6.219 6.35-6.448.766z"/><path d="m205.972 215.112 7.538-.901 6.358 6.329-7.538.898z"/><path d="m196.89 177.11 10.535-2.58v7.862l-4.177.962z"/><path d="m207.425 174.53 35.238 5.2v7.781l-35.238-5.119z"/><path d="m242.663 179.73 26.156-4.095v7.781l-26.156 4.095z"/><path d="m150.119 188.637 7.828-1.925 5.704 5.783-7.556 1.732z"/><path d="m130.229 193.531 4.995-1.229 5.722 5.426-4.723 1.085z"/><path d="m173.459 182.884 6.902-1.679 6.176 6.019-6.993 1.597z"/><path d="m162.016 129.771 43.593 10.647 1.09 9.828-41.413-10.033z"/><path d="m205.609 140.418 25.611-7.985.908 9.828-25.429 7.985z"/><path d="m231.22 132.433 23.249 6.347.545 9.623-22.886-6.142z"/><path d="m254.469 138.78 14.35-3.481v9.828l-13.805 3.276z"/><path d="m153.479 133.723 8.537-3.952 3.27 10.442-3.561 1.516z"/><path d="m93.902 161.078 6.539-2.99v1.986l5.812 5.058-5.267 2.211z"/><path d="m112.611 152.498 8.991-4.136v2.089l5.685 5.794-7.774 3.276z"/><path d="m133.862 142.732 6.539-3.01v2.334l6.109 6.092-4.983 2.098z"/><path d="m85.7279 142.466 78.6491-44.2268.363 7.5758-70.1119 38.084z"/><path d="m164.377 98.2392 42.321 13.7188.545 6.961-42.503-13.104z"/><path d="m206.698 111.958 24.885-11.057v7.166l-24.34 10.852z"/><path d="m254.832 109.705 14.168-6.552v7.371l-14.168 6.552z"/><path d="m231.583 100.901 23.249 8.804v7.371l-23.249-9.009z"/><path d="m173.641 98.6487 34.148-18.8371v6.3473l-27.609 14.5371z"/><path d="m207.789 79.8116 35.056 14.9469v5.7335l-35.056-14.3331z"/><path d="m242.845 94.7585 25.61-10.6472v5.9379l-25.61 10.4428z"/><path d="m214.691 79.7637 28.79-15.1038v6.3473l-21.888 11.6708z"/><path d="m243.481 64.6599 19.518 9.4186v5.6852l-19.518-8.7565z"/><path d="m262.999 74.0785 5.638-3.4808v6.1425l-5.638 3.0235z"/><path d="m142.657 132.686h6.654l-6.654 8.338z"/><path d="m149.311 132.686 97.197 95.878h-15.968l-87.883-87.54z"/><path d="m230.54 228.564h15.968v40.436l-15.968-6.885z"/><path d="m123.959 142.242h6.272l-6.272 7.595z"/><path d="m130.231 142.242 90.336 89.925h-14.959l-81.649-82.33z"/><path d="m205.608 232.167h14.959v36.833l-14.959-6.885z"/><path d="m102.77 152.089h6.026l-6.026 7.01z"/><path d="m108.796 152.089 88.087 82.911h-14.336l-79.777-75.901z"/><path d="m182.547 235h14.336v34l-14.336-6.885z"/><path d="m84.0686 160.913h6.2329l-6.2329 6.884z"/><path d="m90.3015 160.913 77.2865 67.468-6.232 6.885-77.2874-67.469z"/><path d="m161.356 235.266 6.232-6.885 7.48 6.885v33.734l-13.712-6.885z"/></g><path d="m19.2232 206.917c-5.7695-53.114 102.2538-120.8034 102.2538-120.8034s-97.2711 77.7644-77.5721 120.8034c17.63 38.518 116.3571 28.762 104.0161 36.432-12.34 7.67-122.7958 17.901-128.6978-36.432z" fill="#fff"/><path d="m163.324 60.5507s-33.011 24.2289-33.855 20.3141c-.844-3.9149 29.13-27.654 29.13-27.654s9.392-6.2409 11.923-3.6109-7.198 10.9508-7.198 10.9508z" fill="#fff"/><path d="m133.653 32.1012 17.186 32.4886 22.05 28.784 6.074-4.6255-14.627-34.4373-24.778-26.7068z" fill="#fff"/><path d="m121.033 70.882 6.187 11.696 7.938 10.3622 2.186-1.6652-5.266-12.3974-8.92-9.6145z" fill="#fff"/></svg>